<mxfile host="app.diagrams.net" modified="2024-03-12T10:45:58.161Z" agent="Mozilla/5.0 (Windows NT 10.0; Win64; x64) AppleWebKit/537.36 (KHTML, like Gecko) Chrome/122.0.0.0 Safari/537.36 Edg/122.0.0.0" etag="NCnxR-LAnebjyEdwL4jN" version="24.0.5" type="device">
  <diagram name="Seite-1" id="e2dhDYWPwq4B96d2uhu8">
    <mxGraphModel dx="1002" dy="543" grid="1" gridSize="10" guides="1" tooltips="1" connect="1" arrows="1" fold="1" page="1" pageScale="1" pageWidth="827" pageHeight="1169" math="0" shadow="0">
      <root>
        <mxCell id="0" />
        <mxCell id="1" parent="0" />
        <mxCell id="qH2LjV1pGE-CIEt-mXnt-2" value="" style="rounded=0;whiteSpace=wrap;html=1;" parent="1" vertex="1">
          <mxGeometry x="134" y="160" width="466" height="330" as="geometry" />
        </mxCell>
        <mxCell id="qH2LjV1pGE-CIEt-mXnt-27" style="rounded=0;orthogonalLoop=1;jettySize=auto;html=1;entryX=0;entryY=0.5;entryDx=0;entryDy=0;endArrow=none;endFill=0;" parent="1" source="qH2LjV1pGE-CIEt-mXnt-1" target="qH2LjV1pGE-CIEt-mXnt-23" edge="1">
          <mxGeometry relative="1" as="geometry">
            <mxPoint x="100" y="250" as="sourcePoint" />
            <mxPoint x="150" y="340" as="targetPoint" />
          </mxGeometry>
        </mxCell>
        <mxCell id="qH2LjV1pGE-CIEt-mXnt-1" value="Benutzer" style="shape=umlActor;verticalLabelPosition=bottom;verticalAlign=top;html=1;outlineConnect=0;" parent="1" vertex="1">
          <mxGeometry x="50" y="260" width="30" height="60" as="geometry" />
        </mxCell>
        <mxCell id="qH2LjV1pGE-CIEt-mXnt-3" value="PetUngry" style="text;html=1;strokeColor=none;fillColor=none;align=center;verticalAlign=middle;whiteSpace=wrap;rounded=0;" parent="1" vertex="1">
          <mxGeometry x="302" y="160" width="130" height="30" as="geometry" />
        </mxCell>
        <mxCell id="qH2LjV1pGE-CIEt-mXnt-28" style="rounded=0;orthogonalLoop=1;jettySize=auto;html=1;exitX=1;exitY=0.5;exitDx=0;exitDy=0;entryX=0;entryY=1;entryDx=0;entryDy=0;endArrow=none;endFill=0;" parent="1" source="WLyHe1M9L2RqG4ycNkxL-1" target="qH2LjV1pGE-CIEt-mXnt-6" edge="1">
          <mxGeometry relative="1" as="geometry">
            <mxPoint x="235.35533905932743" y="325.85786437626894" as="sourcePoint" />
          </mxGeometry>
        </mxCell>
        <mxCell id="qH2LjV1pGE-CIEt-mXnt-6" value="Fütterung buchen" style="ellipse;whiteSpace=wrap;html=1;" parent="1" vertex="1">
          <mxGeometry x="300" y="195" width="100" height="40" as="geometry" />
        </mxCell>
        <mxCell id="qH2LjV1pGE-CIEt-mXnt-8" value="Fütterung bearbeiten" style="ellipse;whiteSpace=wrap;html=1;" parent="1" vertex="1">
          <mxGeometry x="474" y="260" width="100" height="40" as="geometry" />
        </mxCell>
        <mxCell id="qH2LjV1pGE-CIEt-mXnt-9" value="Fütterung löschen" style="ellipse;whiteSpace=wrap;html=1;" parent="1" vertex="1">
          <mxGeometry x="290" y="370" width="100" height="40" as="geometry" />
        </mxCell>
        <mxCell id="qH2LjV1pGE-CIEt-mXnt-33" style="edgeStyle=none;rounded=0;orthogonalLoop=1;jettySize=auto;html=1;exitX=1;exitY=0;exitDx=0;exitDy=0;entryX=0;entryY=0.5;entryDx=0;entryDy=0;endArrow=none;endFill=0;dashed=1;strokeColor=default;align=center;verticalAlign=middle;fontFamily=Helvetica;fontSize=11;fontColor=default;labelBackgroundColor=default;startArrow=open;startFill=0;" parent="1" source="qH2LjV1pGE-CIEt-mXnt-23" target="qH2LjV1pGE-CIEt-mXnt-8" edge="1">
          <mxGeometry relative="1" as="geometry" />
        </mxCell>
        <mxCell id="qH2LjV1pGE-CIEt-mXnt-34" style="edgeStyle=none;rounded=0;orthogonalLoop=1;jettySize=auto;html=1;exitX=1;exitY=1;exitDx=0;exitDy=0;entryX=0;entryY=0.5;entryDx=0;entryDy=0;endArrow=none;endFill=0;dashed=1;strokeColor=default;align=center;verticalAlign=middle;fontFamily=Helvetica;fontSize=11;fontColor=default;labelBackgroundColor=default;startArrow=open;startFill=0;" parent="1" source="qH2LjV1pGE-CIEt-mXnt-23" target="qH2LjV1pGE-CIEt-mXnt-9" edge="1">
          <mxGeometry relative="1" as="geometry" />
        </mxCell>
        <mxCell id="qH2LjV1pGE-CIEt-mXnt-23" value="Dashboard anzeigen" style="ellipse;whiteSpace=wrap;html=1;" parent="1" vertex="1">
          <mxGeometry x="150" y="330" width="100" height="40" as="geometry" />
        </mxCell>
        <mxCell id="d_u1jrtxfyVBRsREm5s4-13" value="&amp;lt;&amp;lt;&lt;span style=&quot;background-color: initial;&quot;&gt;extend&amp;gt;&amp;gt;&lt;/span&gt;" style="text;html=1;align=center;verticalAlign=middle;resizable=0;points=[];autosize=1;strokeColor=none;fillColor=none;rotation=-15;" parent="1" vertex="1">
          <mxGeometry x="230" y="320" width="90" height="30" as="geometry" />
        </mxCell>
        <mxCell id="d_u1jrtxfyVBRsREm5s4-14" value="&amp;lt;&amp;lt;&lt;span style=&quot;background-color: initial;&quot;&gt;extend&amp;gt;&amp;gt;&lt;/span&gt;" style="text;html=1;align=center;verticalAlign=middle;resizable=0;points=[];autosize=1;strokeColor=none;fillColor=none;rotation=30;" parent="1" vertex="1">
          <mxGeometry x="220" y="380" width="90" height="30" as="geometry" />
        </mxCell>
        <mxCell id="d_u1jrtxfyVBRsREm5s4-25" style="edgeStyle=orthogonalEdgeStyle;rounded=0;orthogonalLoop=1;jettySize=auto;html=1;exitX=0;exitY=1;exitDx=0;exitDy=0;exitPerimeter=0;dashed=1;strokeColor=default;align=center;verticalAlign=middle;fontFamily=Helvetica;fontSize=11;fontColor=default;labelBackgroundColor=default;endArrow=none;endFill=0;" parent="1" source="d_u1jrtxfyVBRsREm5s4-16" edge="1">
          <mxGeometry relative="1" as="geometry">
            <mxPoint x="400" y="340" as="targetPoint" />
          </mxGeometry>
        </mxCell>
        <mxCell id="d_u1jrtxfyVBRsREm5s4-16" value="&lt;span style=&quot;text-wrap: nowrap;&quot;&gt;condition:&lt;/span&gt;&lt;br style=&quot;text-wrap: nowrap;&quot;&gt;&lt;span style=&quot;text-wrap: nowrap;&quot;&gt;Bearbeitungs Button gedrückt&lt;/span&gt;" style="shape=note;size=20;whiteSpace=wrap;html=1;" parent="1" vertex="1">
          <mxGeometry x="342" y="315" width="90" height="40" as="geometry" />
        </mxCell>
        <mxCell id="d_u1jrtxfyVBRsREm5s4-24" style="edgeStyle=orthogonalEdgeStyle;rounded=0;orthogonalLoop=1;jettySize=auto;html=1;exitX=0;exitY=0;exitDx=0;exitDy=0;exitPerimeter=0;entryX=0.319;entryY=0.945;entryDx=0;entryDy=0;entryPerimeter=0;dashed=1;strokeColor=default;align=center;verticalAlign=middle;fontFamily=Helvetica;fontSize=11;fontColor=default;labelBackgroundColor=default;endArrow=none;endFill=0;" parent="1" source="d_u1jrtxfyVBRsREm5s4-16" target="d_u1jrtxfyVBRsREm5s4-13" edge="1">
          <mxGeometry relative="1" as="geometry" />
        </mxCell>
        <mxCell id="WLyHe1M9L2RqG4ycNkxL-1" value="Fütterer auswählen" style="ellipse;whiteSpace=wrap;html=1;" vertex="1" parent="1">
          <mxGeometry x="150" y="250" width="100" height="40" as="geometry" />
        </mxCell>
        <mxCell id="WLyHe1M9L2RqG4ycNkxL-3" style="rounded=0;orthogonalLoop=1;jettySize=auto;html=1;exitX=0.5;exitY=1;exitDx=0;exitDy=0;entryX=0.5;entryY=0;entryDx=0;entryDy=0;endArrow=none;endFill=0;" edge="1" parent="1" source="WLyHe1M9L2RqG4ycNkxL-1" target="qH2LjV1pGE-CIEt-mXnt-23">
          <mxGeometry relative="1" as="geometry">
            <mxPoint x="260" y="280" as="sourcePoint" />
            <mxPoint x="325" y="239" as="targetPoint" />
          </mxGeometry>
        </mxCell>
      </root>
    </mxGraphModel>
  </diagram>
</mxfile>
